<?xml version="1.0" encoding="UTF-8" standalone="no"?>
<!-- Created with Inkscape (http://www.inkscape.org/) -->

<svg
   xmlns:dc="http://purl.org/dc/elements/1.1/"
   xmlns:cc="http://creativecommons.org/ns#"
   xmlns:rdf="http://www.w3.org/1999/02/22-rdf-syntax-ns#"
   xmlns:svg="http://www.w3.org/2000/svg"
   xmlns="http://www.w3.org/2000/svg"
   xmlns:sodipodi="http://sodipodi.sourceforge.net/DTD/sodipodi-0.dtd"
   xmlns:inkscape="http://www.inkscape.org/namespaces/inkscape"
   width="256"
   height="256"
   viewBox="0 0 67.733332 67.733335"
   version="1.1"
   id="svg873"
   inkscape:version="0.92.3 (2405546, 2018-03-11)"
   sodipodi:docname="features_batteries.svg">
  <defs
     id="defs867">
    <inkscape:path-effect
       effect="envelope"
       id="path-effect5304"
       is_visible="true"
       yy="true"
       xx="true"
       bendpath1="M -113.08073,119.35606 H 26.307289"
       bendpath2="m 26.307289,119.35606 v 19.73961"
       bendpath3="M -113.08073,139.09567 H 26.307289"
       bendpath4="m -113.08073,119.35606 v 19.73961" />
    <inkscape:path-effect
       effect="bounding_box"
       id="path-effect5302"
       is_visible="true"
       linkedpath=""
       visualbounds="true" />
    <inkscape:path-effect
       effect="bend_path"
       id="path-effect5300"
       is_visible="true"
       bendpath="m -39.904214,119.05243 0.03787,9.62027 0.169851,11.12555"
       prop_scale="-1.0388388"
       scale_y_rel="false"
       vertical="true"
       bendpath-nodetypes="ccc" />
  </defs>
  <sodipodi:namedview
     id="base"
     pagecolor="#2c2c2c"
     bordercolor="#666666"
     borderopacity="1.0"
     inkscape:pageopacity="0"
     inkscape:pageshadow="2"
     inkscape:zoom="1.4142136"
     inkscape:cx="-123.21685"
     inkscape:cy="76.941501"
     inkscape:document-units="mm"
     inkscape:current-layer="layer1"
     showgrid="false"
     units="px"
     inkscape:window-width="1920"
     inkscape:window-height="1057"
     inkscape:window-x="-8"
     inkscape:window-y="-8"
     inkscape:window-maximized="1" />
  <metadata
     id="metadata870">
    <rdf:RDF>
      <cc:Work
         rdf:about="">
        <dc:format>image/svg+xml</dc:format>
        <dc:type
           rdf:resource="http://purl.org/dc/dcmitype/StillImage" />
        <dc:title></dc:title>
      </cc:Work>
    </rdf:RDF>
  </metadata>
  <g
     inkscape:label="Layer 1"
     inkscape:groupmode="layer"
     id="layer1"
     transform="translate(0,-229.26665)">
    <ellipse
       style="opacity:1;fill:none;fill-opacity:1;stroke:#cccccc;stroke-width:0.69999999;stroke-linecap:butt;stroke-linejoin:miter;stroke-miterlimit:4;stroke-dasharray:none;stroke-dashoffset:0;stroke-opacity:1;paint-order:markers stroke fill"
       id="path1530"
       cx="18.290859"
       cy="238.44644"
       rx="13.699672"
       ry="2.3492239" />
    <path
       id="path1534"
       style="opacity:1;fill:none;fill-opacity:1;stroke:#cccccc;stroke-width:0.69999999;stroke-linecap:butt;stroke-linejoin:miter;stroke-miterlimit:4;stroke-dasharray:none;stroke-dashoffset:0;stroke-opacity:1;paint-order:markers stroke fill"
       d="m 31.95199,238.48256 0.01928,49.81015 c 0.01928,1.32698 -6.114276,2.37877 -13.680402,2.37877 -7.566125,0 -13.6996782,-1.05179 -13.6996707,-2.34922"
       inkscape:connector-curvature="0"
       sodipodi:nodetypes="ccsc" />
    <path
       id="path1542"
       style="opacity:1;fill:#cccccc;fill-opacity:1;stroke:#cccccc;stroke-width:0.69999999;stroke-linecap:butt;stroke-linejoin:miter;stroke-miterlimit:4;stroke-dasharray:none;stroke-dashoffset:0;stroke-opacity:1;paint-order:markers stroke fill"
       d="m 13.338735,290.5269 v -49.80355 c 0,0 -8.8250968,-0.71026 -8.7484175,-2.28197 v 49.97121 c 0.5783502,1.39147 8.7484175,2.11431 8.7484175,2.11431 z"
       inkscape:connector-curvature="0"
       sodipodi:nodetypes="ccccc" />
    <ellipse
       ry="0.71279985"
       rx="3.1908114"
       cy="236.88147"
       cx="18.290859"
       id="ellipse1548"
       style="opacity:1;fill:none;fill-opacity:1;stroke:#cccccc;stroke-width:1.5;stroke-linecap:butt;stroke-linejoin:miter;stroke-miterlimit:4;stroke-dasharray:none;stroke-dashoffset:0;stroke-opacity:1;paint-order:markers stroke fill" />
    <ellipse
       style="opacity:1;fill:#cccccc;fill-opacity:1;stroke:none;stroke-width:0.69999999;stroke-linecap:butt;stroke-linejoin:miter;stroke-miterlimit:4;stroke-dasharray:none;stroke-dashoffset:0;stroke-opacity:1;paint-order:markers stroke fill"
       id="ellipse1550"
       cx="18.290859"
       cy="238.29623"
       rx="8.9654799"
       ry="1.4376569" />
    <g
       aria-label="-"
       transform="matrix(0.88462606,0,0,0.88067009,62.011379,144.46122)"
       style="font-style:normal;font-variant:normal;font-weight:normal;font-stretch:normal;font-size:26.66666603px;line-height:1.25;font-family:Arial;-inkscape-font-specification:Arial;letter-spacing:0px;word-spacing:0px;fill:#cccccc;fill-opacity:1;stroke:none;stroke-width:0.29976162"
       id="flowRoot1552">
      <path
         d="m -52.903646,160.04095 v -2.35677 h 7.200521 v 2.35677 z"
         style="fill:#cccccc;stroke-width:0.29976162"
         id="path5351" />
    </g>
    <g
       aria-label="+"
       transform="matrix(0.69098072,0,0,0.68789072,50.161062,139.60494)"
       style="font-style:normal;font-variant:normal;font-weight:normal;font-stretch:normal;font-size:26.66666603px;line-height:1.25;font-family:Arial;-inkscape-font-specification:Arial;letter-spacing:0px;word-spacing:0px;fill:#cccccc;fill-opacity:1;stroke:none;stroke-width:0.38376892"
       id="flowRoot1566">
      <path
         d="m -47.070313,162.68418 v -5.23437 h -5.195312 v -2.1875 h 5.195312 v -5.19532 h 2.213542 v 5.19532 h 5.195312 v 2.1875 h -5.195312 v 5.23437 z"
         style="fill:#cccccc;stroke-width:0.38376892"
         id="path5348"
         inkscape:connector-curvature="0" />
    </g>
    <g
       aria-label="GAME SDK"
       transform="matrix(0,-0.30756973,0.30895134,0.07032954,-31.126194,243.52079)"
       style="font-style:normal;font-variant:normal;font-weight:normal;font-stretch:normal;font-size:26.66666603px;line-height:1.25;font-family:Arial;-inkscape-font-specification:Arial;letter-spacing:0px;word-spacing:0px;fill:#333333;fill-opacity:1;stroke:none;stroke-width:0.85831285"
       id="flowRoot1568">
      <path
         d="m -103.51042,131.28314 v -2.23958 l 8.08594,-0.013 v 7.08334 q -1.861979,1.48437 -3.841145,2.23958 -1.979165,0.74219 -4.062505,0.74219 -2.8125,0 -5.11718,-1.19792 -2.29167,-1.21094 -3.46354,-3.48958 -1.17188,-2.27865 -1.17188,-5.09115 0,-2.78646 1.15885,-5.19531 1.17188,-2.42187 3.35938,-3.59375 2.1875,-1.17187 5.03906,-1.17187 2.07031,0 3.736981,0.67708 1.679688,0.66406 2.630209,1.86198 0.95052,1.19791 1.445312,3.125 l -2.278646,0.625 q -0.429687,-1.45834 -1.067708,-2.29167 -0.638021,-0.83333 -1.822918,-1.32812 -1.18489,-0.50782 -2.63021,-0.50782 -1.73177,0 -2.99479,0.53386 -1.26302,0.52083 -2.04427,1.38021 -0.76823,0.85937 -1.19792,1.88802 -0.72916,1.77083 -0.72916,3.84114 0,2.55209 0.87239,4.27084 0.88542,1.71875 2.56511,2.55208 1.67968,0.83333 3.56771,0.83333 1.64062,0 3.20312,-0.625 1.5625,-0.63802 2.369792,-1.35416 v -3.55469 z"
         style="stroke-width:0.85831285"
         id="path5285"
         inkscape:connector-curvature="0" />
      <path
         d="m -93.809896,138.77012 7.330729,-19.08854 h 2.721354 l 7.812499,19.08854 h -2.877604 l -2.226562,-5.78125 h -7.981771 l -2.096354,5.78125 z m 5.507812,-7.83854 h 6.471354 l -1.992188,-5.28646 q -0.911458,-2.40886 -1.354166,-3.95834 -0.364583,1.83594 -1.028646,3.64584 z"
         style="stroke-width:0.85831285"
         id="path5287"
         inkscape:connector-curvature="0" />
      <path
         d="m -73.979169,138.77012 v -19.08854 h 3.802083 l 4.518229,13.51562 q 0.625,1.88802 0.911458,2.82552 0.325521,-1.04167 1.015625,-3.05989 l 4.570313,-13.28125 h 3.398437 v 19.08854 h -2.434896 v -15.97656 l -5.546875,15.97656 h -2.278645 l -5.520833,-16.25 v 16.25 z"
         style="stroke-width:0.85831285"
         id="path5289"
         inkscape:connector-curvature="0" />
      <path
         d="m -51.609375,138.77012 v -19.08854 h 13.802083 v 2.2526 h -11.276041 v 5.84635 h 10.559895 v 2.23959 h -10.559895 v 6.49739 h 11.718749 v 2.25261 z"
         style="stroke-width:0.85831285"
         id="path5291"
         inkscape:connector-curvature="0" />
      <path
         d="m -27.312505,132.63731 2.382812,-0.20834 q 0.169271,1.43229 0.78125,2.35677 0.625,0.91146 1.927084,1.48438 1.302083,0.55989 2.929687,0.55989 1.445312,0 2.552083,-0.42968 1.106771,-0.42969 1.640625,-1.17188 0.546875,-0.75521 0.546875,-1.64062 0,-0.89844 -0.520833,-1.5625 -0.520833,-0.67709 -1.71875,-1.13282 -0.768229,-0.29948 -3.398437,-0.92448 -2.630209,-0.63802 -3.684896,-1.19791 -1.367188,-0.71615 -2.044271,-1.77084 -0.664062,-1.0677 -0.664062,-2.38281 0,-1.44531 0.820312,-2.69531 0.820312,-1.26302 2.395833,-1.91406 1.575521,-0.65104 3.502604,-0.65104 2.122396,0 3.736979,0.6901 1.627605,0.67708 2.5,2.00521 0.872396,1.32812 0.9375,3.00781 l -2.421875,0.18229 q -0.195312,-1.80989 -1.328125,-2.73437 -1.119791,-0.92448 -3.320312,-0.92448 -2.291667,0 -3.346354,0.84635 -1.041667,0.83334 -1.041667,2.01823 0,1.02865 0.742188,1.69271 0.729166,0.66406 3.802083,1.36719 3.085937,0.6901 4.231771,1.21093 1.666666,0.76823 2.460937,1.95313 0.794271,1.17187 0.794271,2.70833 0,1.52344 -0.872396,2.87761 -0.872396,1.34114 -2.513021,2.09635 -1.627604,0.74219 -3.671874,0.74219 -2.591146,0 -4.348959,-0.75521 -1.744791,-0.75521 -2.747395,-2.26563 -0.989584,-1.52343 -1.041667,-3.43749 z"
         style="stroke-width:0.85831285"
         id="path5293"
         inkscape:connector-curvature="0" />
      <path
         d="m -8.6406301,138.77012 v -19.08854 h 6.5755206 q 2.22656249,0 3.3984375,0.27343 1.6406249,0.37761 2.7994791,1.36719 1.5104166,1.27604 2.2526041,3.26823 0.7552083,1.97917 0.7552083,4.53125 0,2.17448 -0.5078125,3.85417 -0.5078125,1.67968 -1.3020833,2.78645 -0.7942708,1.09375 -1.7447916,1.73178 -0.9375,0.625 -2.2786458,0.95052 -1.32812497,0.32552 -3.0598958,0.32552 z m 2.5260416,-2.25261 h 4.0755207 q 1.8880208,0 2.9557291,-0.35156 1.0807291,-0.35156 1.71875,-0.98958 0.8984374,-0.89844 1.3932291,-2.40886 0.5078125,-1.52343 0.5078125,-3.68489 0,-2.99479 -0.9895833,-4.59636 -0.9765625,-1.61458 -2.3828125,-2.16145 -1.01562494,-0.39063 -3.2682291,-0.39063 h -4.0104165 z"
         style="stroke-width:0.85831285"
         id="path5295"
         inkscape:connector-curvature="0" />
      <path
         d="m 10.526039,138.77012 v -19.08854 h 2.526042 v 9.46614 l 9.479166,-9.46614 h 3.424479 l -8.007812,7.73437 8.359375,11.35417 h -3.333334 l -6.796874,-9.66146 -3.125,3.04687 v 6.61459 z"
         style="stroke-width:0.85831285"
         id="path5297"
         inkscape:connector-curvature="0" />
    </g>
    <ellipse
       ry="2.3492239"
       rx="13.699672"
       cy="238.44644"
       cx="48.982525"
       id="ellipse5306"
       style="opacity:1;fill:none;fill-opacity:1;stroke:#cccccc;stroke-width:0.69999999;stroke-linecap:butt;stroke-linejoin:miter;stroke-miterlimit:4;stroke-dasharray:none;stroke-dashoffset:0;stroke-opacity:1;paint-order:markers stroke fill" />
    <path
       sodipodi:nodetypes="ccsc"
       inkscape:connector-curvature="0"
       d="m 62.643657,238.48256 0.01928,49.81015 c 0.01928,1.32698 -6.114276,2.37877 -13.680402,2.37877 -7.566125,0 -13.699679,-1.05179 -13.699671,-2.34922"
       style="opacity:1;fill:none;fill-opacity:1;stroke:#cccccc;stroke-width:0.69999999;stroke-linecap:butt;stroke-linejoin:miter;stroke-miterlimit:4;stroke-dasharray:none;stroke-dashoffset:0;stroke-opacity:1;paint-order:markers stroke fill"
       id="path5308" />
    <path
       sodipodi:nodetypes="ccccc"
       inkscape:connector-curvature="0"
       d="m 44.030402,290.5269 v -49.80355 c 0,0 -8.825097,-0.71026 -8.748418,-2.28197 v 49.97121 c 0.57835,1.39147 8.748418,2.11431 8.748418,2.11431 z"
       style="opacity:1;fill:#cccccc;fill-opacity:1;stroke:#cccccc;stroke-width:0.69999999;stroke-linecap:butt;stroke-linejoin:miter;stroke-miterlimit:4;stroke-dasharray:none;stroke-dashoffset:0;stroke-opacity:1;paint-order:markers stroke fill"
       id="path5310" />
    <ellipse
       style="opacity:1;fill:none;fill-opacity:1;stroke:#cccccc;stroke-width:1.5;stroke-linecap:butt;stroke-linejoin:miter;stroke-miterlimit:4;stroke-dasharray:none;stroke-dashoffset:0;stroke-opacity:1;paint-order:markers stroke fill"
       id="ellipse5312"
       cx="48.982525"
       cy="236.88147"
       rx="3.1908114"
       ry="0.71279985" />
    <ellipse
       ry="1.4376569"
       rx="8.9654799"
       cy="238.29623"
       cx="48.982525"
       id="ellipse5314"
       style="opacity:1;fill:#cccccc;fill-opacity:1;stroke:none;stroke-width:0.69999999;stroke-linecap:butt;stroke-linejoin:miter;stroke-miterlimit:4;stroke-dasharray:none;stroke-dashoffset:0;stroke-opacity:1;paint-order:markers stroke fill" />
    <g
       aria-label="-"
       transform="matrix(0.88462606,0,0,0.88067009,92.703046,144.46122)"
       style="font-style:normal;font-variant:normal;font-weight:normal;font-stretch:normal;font-size:26.66666603px;line-height:1.25;font-family:Arial;-inkscape-font-specification:Arial;letter-spacing:0px;word-spacing:0px;fill:#cccccc;fill-opacity:1;stroke:none;stroke-width:0.29976162"
       id="flowRoot5322">
      <path
         d="m -52.903646,160.04095 v -2.35677 h 7.200521 v 2.35677 z"
         style="fill:#cccccc;stroke-width:0.29976162"
         id="path5354" />
    </g>
    <g
       aria-label="+"
       transform="matrix(0.69098072,0,0,0.68789072,80.852729,139.60494)"
       style="font-style:normal;font-variant:normal;font-weight:normal;font-stretch:normal;font-size:26.66666603px;line-height:1.25;font-family:Arial;-inkscape-font-specification:Arial;letter-spacing:0px;word-spacing:0px;fill:#cccccc;fill-opacity:1;stroke:none;stroke-width:0.38376892"
       id="flowRoot5330">
      <path
         d="m -47.070313,162.68418 v -5.23437 h -5.195312 v -2.1875 h 5.195312 v -5.19532 h 2.213542 v 5.19532 h 5.195312 v 2.1875 h -5.195312 v 5.23437 z"
         style="fill:#cccccc;stroke-width:0.38376892"
         id="path5357"
         inkscape:connector-curvature="0" />
    </g>
    <g
       id="g5346"
       style="font-style:normal;font-variant:normal;font-weight:normal;font-stretch:normal;font-size:26.66666603px;line-height:1.25;font-family:Arial;-inkscape-font-specification:Arial;letter-spacing:0px;word-spacing:0px;fill:#333333;fill-opacity:1;stroke:none;stroke-width:0.85831285"
       transform="matrix(0,-0.30756973,0.30895134,0.07032954,-0.43452697,243.52079)"
       aria-label="GAME SDK">
      <path
         inkscape:connector-curvature="0"
         id="path5332"
         style="stroke-width:0.85831285"
         d="m -103.51042,131.28314 v -2.23958 l 8.08594,-0.013 v 7.08334 q -1.861979,1.48437 -3.841145,2.23958 -1.979165,0.74219 -4.062505,0.74219 -2.8125,0 -5.11718,-1.19792 -2.29167,-1.21094 -3.46354,-3.48958 -1.17188,-2.27865 -1.17188,-5.09115 0,-2.78646 1.15885,-5.19531 1.17188,-2.42187 3.35938,-3.59375 2.1875,-1.17187 5.03906,-1.17187 2.07031,0 3.736981,0.67708 1.679688,0.66406 2.630209,1.86198 0.95052,1.19791 1.445312,3.125 l -2.278646,0.625 q -0.429687,-1.45834 -1.067708,-2.29167 -0.638021,-0.83333 -1.822918,-1.32812 -1.18489,-0.50782 -2.63021,-0.50782 -1.73177,0 -2.99479,0.53386 -1.26302,0.52083 -2.04427,1.38021 -0.76823,0.85937 -1.19792,1.88802 -0.72916,1.77083 -0.72916,3.84114 0,2.55209 0.87239,4.27084 0.88542,1.71875 2.56511,2.55208 1.67968,0.83333 3.56771,0.83333 1.64062,0 3.20312,-0.625 1.5625,-0.63802 2.369792,-1.35416 v -3.55469 z" />
      <path
         inkscape:connector-curvature="0"
         id="path5334"
         style="stroke-width:0.85831285"
         d="m -93.809896,138.77012 7.330729,-19.08854 h 2.721354 l 7.812499,19.08854 h -2.877604 l -2.226562,-5.78125 h -7.981771 l -2.096354,5.78125 z m 5.507812,-7.83854 h 6.471354 l -1.992188,-5.28646 q -0.911458,-2.40886 -1.354166,-3.95834 -0.364583,1.83594 -1.028646,3.64584 z" />
      <path
         inkscape:connector-curvature="0"
         id="path5336"
         style="stroke-width:0.85831285"
         d="m -73.979169,138.77012 v -19.08854 h 3.802083 l 4.518229,13.51562 q 0.625,1.88802 0.911458,2.82552 0.325521,-1.04167 1.015625,-3.05989 l 4.570313,-13.28125 h 3.398437 v 19.08854 h -2.434896 v -15.97656 l -5.546875,15.97656 h -2.278645 l -5.520833,-16.25 v 16.25 z" />
      <path
         inkscape:connector-curvature="0"
         id="path5338"
         style="stroke-width:0.85831285"
         d="m -51.609375,138.77012 v -19.08854 h 13.802083 v 2.2526 h -11.276041 v 5.84635 h 10.559895 v 2.23959 h -10.559895 v 6.49739 h 11.718749 v 2.25261 z" />
      <path
         inkscape:connector-curvature="0"
         id="path5340"
         style="stroke-width:0.85831285"
         d="m -27.312505,132.63731 2.382812,-0.20834 q 0.169271,1.43229 0.78125,2.35677 0.625,0.91146 1.927084,1.48438 1.302083,0.55989 2.929687,0.55989 1.445312,0 2.552083,-0.42968 1.106771,-0.42969 1.640625,-1.17188 0.546875,-0.75521 0.546875,-1.64062 0,-0.89844 -0.520833,-1.5625 -0.520833,-0.67709 -1.71875,-1.13282 -0.768229,-0.29948 -3.398437,-0.92448 -2.630209,-0.63802 -3.684896,-1.19791 -1.367188,-0.71615 -2.044271,-1.77084 -0.664062,-1.0677 -0.664062,-2.38281 0,-1.44531 0.820312,-2.69531 0.820312,-1.26302 2.395833,-1.91406 1.575521,-0.65104 3.502604,-0.65104 2.122396,0 3.736979,0.6901 1.627605,0.67708 2.5,2.00521 0.872396,1.32812 0.9375,3.00781 l -2.421875,0.18229 q -0.195312,-1.80989 -1.328125,-2.73437 -1.119791,-0.92448 -3.320312,-0.92448 -2.291667,0 -3.346354,0.84635 -1.041667,0.83334 -1.041667,2.01823 0,1.02865 0.742188,1.69271 0.729166,0.66406 3.802083,1.36719 3.085937,0.6901 4.231771,1.21093 1.666666,0.76823 2.460937,1.95313 0.794271,1.17187 0.794271,2.70833 0,1.52344 -0.872396,2.87761 -0.872396,1.34114 -2.513021,2.09635 -1.627604,0.74219 -3.671874,0.74219 -2.591146,0 -4.348959,-0.75521 -1.744791,-0.75521 -2.747395,-2.26563 -0.989584,-1.52343 -1.041667,-3.43749 z" />
      <path
         inkscape:connector-curvature="0"
         id="path5342"
         style="stroke-width:0.85831285"
         d="m -8.6406301,138.77012 v -19.08854 h 6.5755206 q 2.22656249,0 3.3984375,0.27343 1.6406249,0.37761 2.7994791,1.36719 1.5104166,1.27604 2.2526041,3.26823 0.7552083,1.97917 0.7552083,4.53125 0,2.17448 -0.5078125,3.85417 -0.5078125,1.67968 -1.3020833,2.78645 -0.7942708,1.09375 -1.7447916,1.73178 -0.9375,0.625 -2.2786458,0.95052 -1.32812497,0.32552 -3.0598958,0.32552 z m 2.5260416,-2.25261 h 4.0755207 q 1.8880208,0 2.9557291,-0.35156 1.0807291,-0.35156 1.71875,-0.98958 0.8984374,-0.89844 1.3932291,-2.40886 0.5078125,-1.52343 0.5078125,-3.68489 0,-2.99479 -0.9895833,-4.59636 -0.9765625,-1.61458 -2.3828125,-2.16145 -1.01562494,-0.39063 -3.2682291,-0.39063 h -4.0104165 z" />
      <path
         inkscape:connector-curvature="0"
         id="path5344"
         style="stroke-width:0.85831285"
         d="m 10.526039,138.77012 v -19.08854 h 2.526042 v 9.46614 l 9.479166,-9.46614 h 3.424479 l -8.007812,7.73437 8.359375,11.35417 h -3.333334 l -6.796874,-9.66146 -3.125,3.04687 v 6.61459 z" />
    </g>
  </g>
</svg>
