<?xml version="1.0" encoding="UTF-8" standalone="no"?>
<!-- Created with Inkscape (http://www.inkscape.org/) -->

<svg
   xmlns:dc="http://purl.org/dc/elements/1.1/"
   xmlns:cc="http://creativecommons.org/ns#"
   xmlns:rdf="http://www.w3.org/1999/02/22-rdf-syntax-ns#"
   xmlns:svg="http://www.w3.org/2000/svg"
   xmlns="http://www.w3.org/2000/svg"
   xmlns:sodipodi="http://sodipodi.sourceforge.net/DTD/sodipodi-0.dtd"
   xmlns:inkscape="http://www.inkscape.org/namespaces/inkscape"
   width="256"
   height="256"
   viewBox="0 0 67.733332 67.733335"
   version="1.1"
   id="svg873"
   inkscape:version="0.92.3 (2405546, 2018-03-11)"
   sodipodi:docname="features_feather.svg">
  <defs
     id="defs867" />
  <sodipodi:namedview
     id="base"
     pagecolor="#2c2c2c"
     bordercolor="#666666"
     borderopacity="1.0"
     inkscape:pageopacity="0"
     inkscape:pageshadow="2"
     inkscape:zoom="2.5024951"
     inkscape:cx="69.008922"
     inkscape:cy="146.45535"
     inkscape:document-units="mm"
     inkscape:current-layer="layer1"
     showgrid="false"
     units="px"
     inkscape:window-width="1920"
     inkscape:window-height="1057"
     inkscape:window-x="-8"
     inkscape:window-y="-8"
     inkscape:window-maximized="1" />
  <metadata
     id="metadata870">
    <rdf:RDF>
      <cc:Work
         rdf:about="">
        <dc:format>image/svg+xml</dc:format>
        <dc:type
           rdf:resource="http://purl.org/dc/dcmitype/StillImage" />
        <dc:title></dc:title>
      </cc:Work>
    </rdf:RDF>
  </metadata>
  <g
     inkscape:label="Layer 1"
     inkscape:groupmode="layer"
     id="layer1"
     transform="translate(0,-229.26665)">
    <path
       style="opacity:1;fill:none;fill-opacity:1;stroke:#cccccc;stroke-width:2;stroke-linecap:butt;stroke-linejoin:miter;stroke-miterlimit:4;stroke-dasharray:none;stroke-dashoffset:0;stroke-opacity:1;paint-order:fill markers stroke"
       d="m 11.318476,294.64803 c 13.680033,-4.57616 16.046261,-10.4235 16.046261,-10.4235"
       id="path1502"
       inkscape:connector-curvature="0"
       sodipodi:nodetypes="cc" />
    <path
       style="opacity:1;fill:#cccccc;fill-opacity:1;stroke:none;stroke-width:7.55905533;stroke-linecap:butt;stroke-linejoin:miter;stroke-miterlimit:20;stroke-dasharray:none;stroke-dashoffset:0;stroke-opacity:1;paint-order:markers stroke fill"
       d="M 205.38867 23.4375 C 200.82162 31.657141 160.1769 88.852139 150.42383 104.23633 C 141.7631 117.89749 123.12252 141.35471 111.34766 158.18359 L 118.09766 167.25977 C 118.09766 167.25977 113.68803 162.13482 108.21094 162.76367 C 107.88799 163.24635 107.54213 163.7507 107.23633 164.2168 C 104.62464 168.19755 102.06965 172.64685 99.736328 177.18555 C 104.64996 181.07434 108.66211 184.76953 108.66211 184.76953 C 108.66211 184.76953 106.36763 181.99128 95.318359 186.54492 C 90.431361 197.88119 87.762703 208.17736 90.216797 211.41016 C 100.23627 224.60889 125.37825 221.67233 143.15625 210.19727 C 136.07194 202.93941 129.375 203.05664 129.375 203.05664 C 129.375 203.05664 135.95631 202.69046 143.64844 202.70117 C 146.4972 202.70514 149.48126 202.77281 152.35742 202.91797 C 156.44895 199.12767 160.13473 194.97857 163.71094 190.11328 C 158.28097 185.12256 146.99219 184.02148 146.99219 184.02148 L 167.37891 184.79297 C 175.89823 171.76108 184.39563 153.77976 197.07617 125.41797 C 213.5695 88.528344 212.09126 38.543516 205.38867 23.4375 z M 203.07227 36.179688 C 187.53143 81.389412 162.23465 129.95689 153.90039 142.45117 C 145.56612 154.94546 131.83733 180.67595 103.42578 207.71484 C 138.18075 166.03716 171.10173 111.6739 203.07227 36.179688 z "
       id="path1504"
       transform="matrix(0.26458333,0,0,0.26458333,0,229.26665)" />
  </g>
</svg>
